<svg width="120" height="35" viewBox="0 0 120 35" fill="none" xmlns="http://www.w3.org/2000/svg">
<g clip-path="url(#clip0_22_39)">
<path d="M23.5295 28.9712C30.1413 28.9712 35.5012 23.6113 35.5012 16.9995C35.5012 10.3877 30.1413 5.02778 23.5295 5.02778C16.9177 5.02778 11.5578 10.3877 11.5578 16.9995C11.5578 23.6113 16.9177 28.9712 23.5295 28.9712Z" fill="#5FDEFE"/>
<path d="M31.1674 22.0679C31.1674 22.0679 28.179 24.1107 22.8073 23.8459C22.8073 23.8459 16.9438 23.2974 15.6198 22.4084L15.606 24.3805C15.606 24.3805 17.7727 26.0034 23.3525 26.0258C23.3525 26.0258 29.7999 25.8699 31.2809 23.8648L31.1674 22.0679Z" fill="#0C7FE5"/>
<path d="M29.7489 23.734C29.3257 23.9374 28.389 24.0104 28.5389 24.4554C28.6997 24.9329 29.5927 24.5168 30.0408 24.2864C30.4387 24.0817 31.1909 23.6584 30.9389 23.2886C30.7005 22.9386 30.1307 23.5506 29.7489 23.734Z" fill="#010C44"/>
<path d="M16.7925 23.6567C16.7925 23.6567 17.133 23.9783 17.7004 23.8837Z" fill="white"/>
<path d="M17.7004 23.8837V24.697C17.133 24.7916 16.7925 24.4701 16.7925 24.4701V23.6567" fill="white"/>
<path d="M32.1132 20.4413C31.6691 22.1375 31.1674 22.0679 31.1674 22.0679C27.5737 24.1107 23.4882 23.8676 23.4882 23.8676C18.042 23.733 15.6198 22.4084 15.6198 22.4084L15.606 24.3805C15.606 24.3805 15.3929 24.3566 14.8065 23.9026L14.7687 21.3114C14.7687 21.3114 15.7522 19.9117 32.1132 20.4413Z" fill="white"/>
<path d="M31.2809 23.8648C30.2588 25.3078 20.7711 27.8319 14.8065 23.9026L14.8632 24.8105C14.8632 24.8105 16.2062 27.0613 23.2991 26.8533C23.2991 26.8533 31.3187 26.8911 32.2266 23.6757L32.1131 20.4413C32.1131 20.4413 31.8351 21.1465 31.1498 21.4849L31.2809 23.8648Z" fill="#010C44" stroke="white" stroke-width="0.354058" stroke-linejoin="round"/>
<path d="M14.7687 21.3114C15.3266 21.5948 15.7833 21.7346 15.7833 21.7346C24.0347 24.6147 31.1498 21.4849 31.1498 21.4849C31.1498 21.4849 31.8353 21.3902 32.1131 20.4413C32.1372 20.3592 15.9435 19.6557 14.7687 21.3114Z" fill="#010C44"/>
<path d="M31.1674 16.9439C31.1674 16.9439 28.179 18.9867 22.8073 18.7219C22.8073 18.7219 16.9438 18.1734 15.6198 17.2844L15.606 19.2565C15.606 19.2565 17.7727 20.8794 23.3525 20.9018C23.3525 20.9018 29.7999 20.7459 31.2809 18.7408L31.1674 16.9439Z" fill="#0C7FE5"/>
<path d="M29.7489 18.61C29.3257 18.8134 28.389 18.8864 28.5389 19.3314C28.6997 19.8089 29.5927 19.3928 30.0408 19.1624C30.4387 18.9577 31.1909 18.5344 30.9389 18.1646C30.7005 17.8146 30.1307 18.4266 29.7489 18.61Z" fill="#010C44"/>
<path d="M16.7925 18.5327C16.7925 18.5327 17.133 18.8543 17.7004 18.7597Z" fill="white"/>
<path d="M17.7004 18.7597V19.573C17.133 19.6676 16.7925 19.3461 16.7925 19.3461V18.5327" fill="white"/>
<path d="M32.1132 15.3173C31.6691 17.0135 31.1674 16.9439 31.1674 16.9439C27.5737 18.9867 23.4882 18.7436 23.4882 18.7436C18.042 18.609 15.6198 17.2844 15.6198 17.2844L15.606 19.2565C15.606 19.2565 15.3929 19.2326 14.8065 18.7786L14.7687 16.1874C14.7687 16.1874 15.7522 14.7877 32.1132 15.3173Z" fill="white"/>
<path d="M31.2809 18.7408C30.2588 20.1838 20.7711 22.7079 14.8065 18.7786L14.8632 19.6865C14.8632 19.6865 16.2062 21.9373 23.2991 21.7293C23.2991 21.7293 28.6438 21.7545 31.1007 20.0143C31.6534 19.6229 32.0599 19.1421 32.2266 18.5517L32.1131 15.3173C32.1131 15.3173 31.8351 16.0225 31.1498 16.3609L31.2809 18.7408Z" fill="#010C44" stroke="white" stroke-width="0.236038" stroke-linejoin="round"/>
<path d="M14.7687 16.1874C15.3266 16.4708 15.7833 16.6106 15.7833 16.6106C24.0347 19.4907 31.1498 16.3609 31.1498 16.3609C31.1498 16.3609 31.8353 16.2662 32.1131 15.3173C32.1372 15.2352 15.9435 14.5317 14.7687 16.1874Z" fill="#010C44"/>
<path d="M31.2037 11.7243C31.2037 11.7243 28.2153 13.7671 22.8436 13.5023C22.8436 13.5023 16.9801 12.9538 15.6561 12.0648L15.6423 14.0369C15.6423 14.0369 17.809 15.6598 23.3888 15.6822C23.3888 15.6822 29.8362 15.5263 31.3172 13.5212L31.2037 11.7243Z" fill="#0C7FE5"/>
<path d="M29.7852 13.3904C29.362 13.5938 28.4253 13.6668 28.5752 14.1118C28.736 14.5893 29.629 14.1732 30.0771 13.9428C30.475 13.7381 31.2272 13.3148 30.9752 12.945C30.7368 12.595 30.167 13.207 29.7852 13.3904Z" fill="#010C44"/>
<path d="M16.8288 13.3131C16.8288 13.3131 17.1693 13.6347 17.7367 13.5401Z" fill="white"/>
<path d="M17.7367 13.5401V14.3534C17.1693 14.448 16.8288 14.1265 16.8288 14.1265V13.3131" fill="white"/>
<path d="M32.1495 10.0977C31.7054 11.7939 31.2037 11.7243 31.2037 11.7243C27.61 13.7671 23.5245 13.524 23.5245 13.524C18.0783 13.3895 15.6561 12.0648 15.6561 12.0648L15.6423 14.0369C15.6423 14.0369 15.4292 14.013 14.8428 13.559L14.805 10.9678C14.805 10.9678 15.7885 9.56811 32.1495 10.0977Z" fill="white"/>
<path d="M31.3172 13.5212C30.2951 14.9642 20.8074 17.4883 14.8428 13.559L14.8995 14.4669C14.8995 14.4669 16.2425 16.7177 23.3354 16.5097C23.3354 16.5097 28.6801 16.5349 31.137 14.7947C31.6897 14.4033 32.0962 13.9225 32.2629 13.3321L32.1494 10.0977C32.1494 10.0977 31.8714 10.8029 31.1861 11.1413L31.3172 13.5212Z" fill="#010C44" stroke="white" stroke-width="0.236038" stroke-linejoin="round"/>
<path d="M14.805 10.9678C15.3629 11.2513 15.8196 11.391 15.8196 11.391C24.071 14.2711 31.1861 11.1413 31.1861 11.1413C31.1861 11.1413 31.8716 11.0467 32.1494 10.0977C32.1735 10.0156 15.9798 9.31208 14.805 10.9678Z" fill="#010C44"/>
<path d="M13.5802 7.19523C8.77144 11.8895 9.90163 18.8451 9.90163 18.8451C7.66898 18.7878 7.26825 19.3317 7.26825 19.3317C7.23962 19.99 11.1611 19.7324 11.1611 19.7324C9.9875 11.8322 13.5941 8.99849 13.5941 8.99849L13.5802 7.19523Z" fill="#010C44"/>
<path d="M34.9093 8.95726C38.5731 13.3653 37.409 18.8737 37.409 18.8737C41.0443 18.7306 40.1855 19.2744 40.1855 19.2744C39.1265 19.9041 36.2068 19.4462 36.2068 19.4462C37.4663 14.1508 34.4036 9.90911 34.4036 9.90911L34.9093 8.95726Z" fill="#010C44"/>
<path d="M13.4785 24.7922C13.4785 24.7922 12.2565 23.405 11.728 20.8784C11.728 20.8784 7.83081 20.6803 7.45099 21.3738C7.45099 21.3738 7.35191 22.0014 10.7372 22.0674L11.5134 23.7848C11.5134 23.7848 7.74824 23.5371 7.88035 24.0491C7.88035 24.0491 7.05466 24.7426 13.4785 24.7922Z" fill="#010C44"/>
<path d="M39.0252 24.594C42.8729 23.6362 35.8546 23.7353 35.8546 23.7353C36.449 22.761 36.7298 21.5555 36.7298 21.5555C41.0233 21.4894 40.2967 21.0271 40.2967 21.0271C40.7096 20.3665 35.805 20.8619 35.805 20.8619C35.8215 21.9188 33.7078 24.8913 33.7078 24.8913C33.7078 24.8913 38.249 24.8913 39.0252 24.594Z" fill="#010C44"/>
<path d="M14.6155 25.8831C14.6155 25.8831 9.97523 25.6431 10.3486 26.2031C10.3486 26.2031 9.68748 26.6289 13.398 26.5229C13.398 26.5229 16.1897 30.9578 23.699 31.0992C23.699 31.0992 29.035 31.6823 33.8763 26.7703C33.8763 26.7703 37.3924 26.9116 37.5338 26.3992C37.5338 26.3992 38.4879 25.7808 32.9399 25.9929C32.9399 25.9929 29.4944 29.774 23.5753 29.8977C23.5753 29.8977 18.183 30.0139 14.6155 25.8831Z" fill="#010C44"/>
<path d="M24.3669 10.2038C20.8374 13.4482 18.6147 21.6138 18.6147 21.6138L23.5753 30.2919L34.9093 8.95726L34.8998 3.90653C22.2653 0.509834 13.587 4.48124 13.587 4.48124L13.5681 12.0563C13.5681 12.0563 18.0427 9.74054 24.3669 10.2038Z" fill="black"/>
<path d="M26.4421 9.26528C20.7621 15.3699 19.8109 21.5262 19.8109 21.5262L23.4648 28.2115L33.7499 8.77809L32.7585 5.20881C21.9862 2.31275 16.1243 5.8839 16.1243 5.8839L16.0703 9.23234C16.0703 9.23234 20.7853 8.39916 26.4421 9.26528Z" fill="#5FDEFE"/>
<path d="M20.2019 22.248L20.5799 20.7899L23.2533 25.1644L32.1644 8.26022L32.1914 5.0738C32.1914 5.0738 32.2184 4.93878 32.7585 5.20882L33.7846 4.66875V8.80029L23.4423 28.1618L20.2019 22.248Z" fill="#0C7FE5"/>
<path d="M16.0703 9.23234C22.0921 7.53112 27.7088 8.44924 27.7088 8.44924L26.5747 9.28635C26.5747 9.28635 21.471 8.55725 15.3412 10.4205L15.3952 5.37083L16.1243 5.8839L16.0703 9.23234Z" fill="#0C7FE5"/>
<path d="M26.4421 9.26528C26.4421 9.26528 22.2001 12.8238 19.8238 21.4109L20.2019 22.248C20.2019 22.248 20.3046 18.8978 27.7088 8.44924L26.4421 9.26528Z" fill="white"/>
<path d="M33.7846 4.66874L32.7585 5.20881L32.1914 5.07379C19.9318 3.07553 16.1243 5.8839 16.1243 5.8839L15.3952 5.37083C15.3952 5.37083 21.093 2.31943 33.7846 4.66874Z" fill="white"/>
<path d="M67.476 11C67.396 11 67.324 10.972 67.26 10.916C67.204 10.852 67.176 10.78 67.176 10.7V4.88C67.176 4.792 67.204 4.72 67.26 4.664C67.324 4.608 67.396 4.58 67.476 4.58H69.144C69.496 4.58 69.792 4.632 70.032 4.736C70.272 4.84 70.468 4.964 70.62 5.108C70.756 5.244 70.864 5.416 70.944 5.624C71.024 5.824 71.064 6.02 71.064 6.212C71.064 6.428 71.024 6.636 70.944 6.836C70.864 7.028 70.756 7.192 70.62 7.328C70.596 7.352 70.568 7.38 70.536 7.412C70.512 7.436 70.48 7.46 70.44 7.484C70.712 7.596 70.936 7.74 71.112 7.916C71.464 8.268 71.64 8.688 71.64 9.176C71.64 9.392 71.6 9.608 71.52 9.824C71.44 10.032 71.316 10.22 71.148 10.388C70.972 10.564 70.74 10.712 70.452 10.832C70.164 10.944 69.792 11 69.336 11H67.476ZM69.252 7.28C69.46 7.264 69.644 7.22 69.804 7.148C69.972 7.068 70.1 6.984 70.188 6.896C70.372 6.728 70.464 6.5 70.464 6.212C70.464 5.948 70.372 5.724 70.188 5.54C70.084 5.428 69.944 5.34 69.768 5.276C69.6 5.212 69.392 5.18 69.144 5.18H67.776V7.28H69.252ZM67.776 7.88V10.4H69.336C69.688 10.4 69.972 10.36 70.188 10.28C70.412 10.2 70.588 10.092 70.716 9.956C70.932 9.74 71.04 9.48 71.04 9.176C71.04 8.864 70.92 8.588 70.68 8.348C70.368 8.036 69.932 7.88 69.372 7.88H67.776ZM78.517 11C78.381 11 78.289 10.936 78.241 10.808C78.161 10.592 78.065 10.352 77.953 10.088C77.841 9.824 77.721 9.548 77.593 9.26H74.209C74.097 9.548 73.989 9.824 73.885 10.088C73.789 10.344 73.701 10.58 73.621 10.796C73.597 10.86 73.557 10.912 73.501 10.952C73.445 10.984 73.385 11 73.321 11C73.249 11 73.181 10.972 73.117 10.916C73.061 10.852 73.033 10.776 73.033 10.688C73.033 10.664 73.037 10.632 73.045 10.592C73.061 10.544 73.097 10.452 73.153 10.316C73.289 9.956 73.449 9.544 73.633 9.08C73.825 8.616 74.029 8.132 74.245 7.628C74.461 7.124 74.681 6.616 74.905 6.104C75.129 5.592 75.345 5.108 75.553 4.652C75.609 4.532 75.705 4.472 75.841 4.472H75.889C76.033 4.472 76.129 4.528 76.177 4.64C76.393 5.104 76.621 5.604 76.861 6.14C77.109 6.676 77.349 7.208 77.581 7.736C77.813 8.256 78.025 8.744 78.217 9.2C78.409 9.648 78.565 10.02 78.685 10.316C78.749 10.46 78.785 10.556 78.793 10.604C78.809 10.652 78.817 10.684 78.817 10.7C78.817 10.78 78.785 10.852 78.721 10.916C78.665 10.972 78.597 11 78.517 11ZM77.341 8.66C77.109 8.124 76.865 7.576 76.609 7.016C76.353 6.456 76.105 5.924 75.865 5.42C75.641 5.932 75.405 6.468 75.157 7.028C74.917 7.58 74.685 8.124 74.461 8.66H77.341ZM83.9166 5.372C83.7246 5.292 83.5126 5.228 83.2806 5.18C83.0566 5.132 82.7606 5.108 82.3926 5.108C81.9846 5.108 81.6606 5.212 81.4206 5.42C81.1806 5.62 81.0606 5.848 81.0606 6.104C81.0606 6.36 81.1726 6.592 81.3966 6.8C81.6206 7.008 82.0566 7.188 82.7046 7.34C83.2806 7.468 83.7246 7.632 84.0366 7.832C84.3566 8.032 84.5806 8.26 84.7086 8.516C84.8366 8.764 84.9006 9.04 84.9006 9.344C84.9006 9.64 84.8246 9.924 84.6726 10.196C84.5286 10.46 84.2886 10.68 83.9526 10.856C83.6246 11.024 83.1846 11.108 82.6326 11.108C81.8486 11.108 81.1246 10.924 80.4606 10.556C80.3566 10.492 80.3046 10.404 80.3046 10.292C80.3046 10.22 80.3326 10.152 80.3886 10.088C80.4446 10.024 80.5166 9.992 80.6046 9.992C80.6526 9.992 80.7006 10.004 80.7486 10.028C81.3166 10.348 81.9446 10.508 82.6326 10.508C83.1766 10.508 83.5886 10.396 83.8686 10.172C84.1566 9.94 84.3006 9.664 84.3006 9.344C84.3006 9.008 84.1646 8.728 83.8926 8.504C83.6286 8.28 83.1926 8.092 82.5846 7.94C82.0166 7.796 81.5766 7.632 81.2646 7.448C80.9606 7.264 80.7486 7.056 80.6286 6.824C80.5166 6.592 80.4606 6.336 80.4606 6.056C80.4606 5.8 80.5326 5.556 80.6766 5.324C80.8286 5.084 81.0486 4.888 81.3366 4.736C81.6246 4.584 81.9766 4.508 82.3926 4.508C82.8326 4.508 83.1846 4.544 83.4486 4.616C83.7206 4.68 84.0046 4.772 84.3006 4.892C84.4286 4.94 84.4926 5.032 84.4926 5.168C84.4926 5.248 84.4606 5.32 84.3966 5.384C84.3406 5.44 84.2726 5.468 84.1926 5.468C84.1766 5.468 84.1526 5.464 84.1206 5.456C84.0886 5.44 84.0206 5.412 83.9166 5.372ZM87.2573 11C87.1773 11 87.1053 10.972 87.0413 10.916C86.9853 10.852 86.9573 10.78 86.9573 10.7V4.88C86.9573 4.8 86.9813 4.732 87.0293 4.676C87.0853 4.612 87.1493 4.58 87.2213 4.58H90.5813C90.6693 4.58 90.7413 4.608 90.7973 4.664C90.8533 4.72 90.8813 4.792 90.8813 4.88C90.8813 4.96 90.8533 5.032 90.7973 5.096C90.7413 5.152 90.6693 5.18 90.5813 5.18H87.5573V7.268H90.0653C90.1533 7.268 90.2253 7.296 90.2813 7.352C90.3373 7.408 90.3653 7.48 90.3653 7.568C90.3653 7.648 90.3373 7.72 90.2813 7.784C90.2253 7.84 90.1533 7.868 90.0653 7.868H87.5573V10.4H90.6053C90.6933 10.4 90.7653 10.428 90.8213 10.484C90.8773 10.54 90.9053 10.612 90.9053 10.7C90.9053 10.78 90.8773 10.852 90.8213 10.916C90.7653 10.972 90.6933 11 90.6053 11H87.2573Z" fill="#1AB9E2"/>
<path d="M40 8.5H51H61" stroke="#0C7FE5" stroke-width="3"/>
<path d="M97 8H107.5H117.5" stroke="#0C7FE5" stroke-width="3"/>
<path d="M49.98 28V18.2H52.262L56.322 24.864H55.118L59.066 18.2H61.348L61.376 28H58.828L58.8 22.078H59.234L56.28 27.034H55.048L52.01 22.078H52.542V28H49.98ZM62.1614 28L66.4874 18.2H69.2174L73.5574 28H70.6734L67.2854 19.558H68.3774L64.9894 28H62.1614ZM64.5274 26.096L65.2414 24.052H70.0294L70.7434 26.096H64.5274ZM77.7873 28.196C76.9846 28.196 76.2099 28.098 75.4633 27.902C74.7259 27.6967 74.1239 27.4353 73.6573 27.118L74.5673 25.074C75.0059 25.354 75.5099 25.5873 76.0793 25.774C76.6579 25.9513 77.2319 26.04 77.8013 26.04C78.1839 26.04 78.4919 26.0073 78.7253 25.942C78.9586 25.8673 79.1266 25.774 79.2293 25.662C79.3413 25.5407 79.3973 25.4007 79.3973 25.242C79.3973 25.018 79.2946 24.8407 79.0893 24.71C78.8839 24.5793 78.6179 24.472 78.2913 24.388C77.9646 24.304 77.6006 24.22 77.1993 24.136C76.8073 24.052 76.4106 23.9447 76.0093 23.814C75.6173 23.6833 75.2579 23.5153 74.9313 23.31C74.6046 23.0953 74.3386 22.82 74.1333 22.484C73.9279 22.1387 73.8253 21.7047 73.8253 21.182C73.8253 20.594 73.9839 20.062 74.3013 19.586C74.6279 19.11 75.1133 18.7273 75.7573 18.438C76.4013 18.1487 77.2039 18.004 78.1653 18.004C78.8093 18.004 79.4393 18.0787 80.0553 18.228C80.6806 18.368 81.2359 18.578 81.7213 18.858L80.8673 20.916C80.4006 20.664 79.9386 20.4773 79.4813 20.356C79.0239 20.2253 78.5806 20.16 78.1513 20.16C77.7686 20.16 77.4606 20.202 77.2273 20.286C76.9939 20.3607 76.8259 20.4633 76.7233 20.594C76.6206 20.7247 76.5693 20.874 76.5693 21.042C76.5693 21.2567 76.6673 21.4293 76.8633 21.56C77.0686 21.6813 77.3346 21.784 77.6613 21.868C77.9973 21.9427 78.3613 22.022 78.7533 22.106C79.1546 22.19 79.5513 22.2973 79.9433 22.428C80.3446 22.5493 80.7086 22.7173 81.0353 22.932C81.3619 23.1373 81.6233 23.4127 81.8193 23.758C82.0246 24.094 82.1273 24.5187 82.1273 25.032C82.1273 25.6013 81.9639 26.1287 81.6373 26.614C81.3199 27.09 80.8393 27.4727 80.1953 27.762C79.5606 28.0513 78.7579 28.196 77.7873 28.196ZM85.357 28V20.398H82.347V18.2H91.125V20.398H88.129V28H85.357ZM94.7057 21.994H99.2557V24.066H94.7057V21.994ZM94.9017 25.858H100.026V28H92.1577V18.2H99.8437V20.342H94.9017V25.858ZM101.564 28V18.2H106.044C106.94 18.2 107.71 18.3447 108.354 18.634C109.007 18.9233 109.511 19.3433 109.866 19.894C110.221 20.4353 110.398 21.0793 110.398 21.826C110.398 22.5633 110.221 23.2027 109.866 23.744C109.511 24.276 109.007 24.6867 108.354 24.976C107.71 25.256 106.94 25.396 106.044 25.396H103.104L104.336 24.234V28H101.564ZM107.626 28L105.19 24.43H108.144L110.594 28H107.626ZM104.336 24.528L103.104 23.254H105.876C106.455 23.254 106.884 23.128 107.164 22.876C107.453 22.624 107.598 22.274 107.598 21.826C107.598 21.3687 107.453 21.014 107.164 20.762C106.884 20.51 106.455 20.384 105.876 20.384H103.104L104.336 19.11V24.528Z" fill="#0C7FE5"/>
<path d="M99.5 18C98.6667 15.1667 92.5 12.5 61.5 18L80 14L89.5 12L97.5 9.5H117.5L99.5 18Z" fill="url(#paint0_linear_22_39)"/>
</g>
<defs>
<linearGradient id="paint0_linear_22_39" x1="61.5" y1="13.75" x2="99.5" y2="13.75" gradientUnits="userSpaceOnUse">
<stop stop-color="#D9D9D9"/>
<stop offset="1" stop-color="#737373"/>
</linearGradient>
<clipPath id="clip0_22_39">
<rect width="120" height="35" fill="white"/>
</clipPath>
</defs>
</svg>
